#!OML:ASF H:\Terrain\Patient Classification 1\Animal1\Tuesday\Animal1.ASF
:FULLY-SPECIFIED
:DEGREES
2632
root 8.50309 16.4815 -21.314 -371.443 -67.2492 21.0451
lowerback -2.80148 -0.350717 -3.19998
upperback -7.94339 -0.802943 -1.5765
thorax -6.68833 -0.34705 0.177344
lowerneck -3.97551 11.2468 -2.01007
upperneck -3.23974 15.1209 6.38251
head -1.04809 7.53773 2.30247
rclavicle 4.57205e-015 1.86858e-014
rhumerus -27.9148 17.1035 -96.4174
rradius 102.834
rwrist 14.0291
rhand 55.503 -11.207
rfingers 7.12502
rthumb 73.0568 -353.423
lclavicle 4.57205e-015 1.86858e-014
lhumerus -37.7084 -29.6355 109.309
lradius 103.298
lwrist -51.2045
lhand -125.634 -476.243
lfingers 7.12502
lthumb 72.5082 -310.811
rfemur -14.7337 27.6684 16.2823
rtibia 20.0694
rfoot -1.76391 -24.888
rtoes -6.56616
lfemur -6.6601 -17.1268 -13.5999
ltibia 28.9499
lfoot 24.2459 -3.03747
ltoes 39.1966
2633
root 8.50253 16.4808 -21.3162 -371.559 -67.252 21.1802
lowerback -2.67141 -0.321905 -3.0001
upperback -8.02856 -0.786957 -1.78961
thorax -6.86022 -0.359155 -0.156031
lowerneck -4.11311 11.224 -1.85571
upperneck -2.98403 15.0762 6.6113
head -0.948902 7.52048 2.36869
rclavicle -7.70291e-014 -3.49861e-014
rhumerus -28.1596 16.8013 -96.7771
rradius 102.89
rwrist 14.2854
rhand 55.2723 -10.822
rfingers 7.12502
rthumb 72.95 -353.707
lclavicle -7.70291e-014 -3.49861e-014
lhumerus -37.9863 -29.7654 109.128
lradius 103.469
lwrist -51.2096
lhand -125.835 -476.231
lfingers 7.12502
lthumb 72.4056 -310.253
rfemur -14.7806 27.9027 16.2016
rtibia 20.1182
rfoot -2.23566 -25.2301
rtoes -5.37871
lfemur -6.63644 -17.1689 -13.65
ltibia 28.8919
lfoot 24.2397 -3.02435
ltoes 40.3461
2634
root 8.50249 16.4827 -21.3203 -371.482 -67.2523 21.1757
lowerback -2.94413 -0.385275 -3.49557
upperback -7.90888 -0.832398 -1.37681
thorax -6.56394 -0.337317 0.549965
lowerneck -4.19034 11.1839 -2.31844
upperneck -3.00803 15.0407 6.44612
head -0.964436 7.50975 2.39405
rclavicle 5.76476e-014 1.19271e-014
rhumerus -28.0088 17.214 -96.1981
rradius 102.907
rwrist 14.2623
rhand 55.2646 -10.5831
rfingers 7.12502
rthumb 72.9464 -353.49
lclavicle 5.76476e-014 1.19271e-014
lhumerus -37.5746 -29.3589 109.414
lradius 103.429
lwrist -51.2337
lhand -126.174 -476.127
lfingers 7.12502
lthumb 72.2292 -309.243
rfemur -14.8966 28.1142 16.1526
rtibia 20.1442
rfoot -2.1557 -25.6037
rtoes -6.28199
lfemur -6.78517 -16.9538 -13.6419
ltibia 28.8739
lfoot 24.2974 -4.7179
ltoes 36.116
2635
root 8.50342 16.486 -21.3247 -371.515 -67.2499 21.2814
lowerback -2.62513 -0.488295 -2.99024
upperback -8.18134 -1.01779 -1.68494
thorax -7.04633 -0.470287 -0.043826
lowerneck -4.0528 11.1784 -2.36238
upperneck -2.90521 15.0427 6.98454
head -1.00553 7.50941 2.56479
rclavicle -1.88845e-015 9.14409e-015
rhumerus -28.482 17.2723 -97.0288
rradius 102.902
rwrist 14.3708
rhand 55.0718 -10.3641
rfingers 7.12502
rthumb 72.8554 -353.824
lclavicle -1.88845e-015 9.14409e-015
lhumerus -38.0454 -29.0723 108.924
lradius 103.499
lwrist -51.1646
lhand -126.435 -475.973
lfingers 7.12502
lthumb 72.09 -308.403
rfemur -14.9939 27.7963 16.1185
rtibia 20.1536
rfoot -1.81071 -25.3022
rtoes -7.46973
lfemur -6.93371 -16.8807 -13.6546
ltibia 28.8996
lfoot 24.3315 -5.39795
ltoes 34.2117
2636
root 8.50562 16.4844 -21.3265 -371.551 -67.2448 21.2993
lowerback -2.45207 -0.500539 -2.78031
upperback -8.2605 -1.05155 -1.80996
thorax -7.23642 -0.50463 -0.288349
lowerneck -3.95979 10.9884 -2.57202
upperneck -3.0648 14.8137 7.36824
head -1.11056 7.39039 2.713
rclavicle 2.73329e-014 -1.19271e-015
rhumerus -28.6267 17.1943 -97.2839
rradius 102.868
rwrist 14.4263
rhand 54.69 -10.094
rfingers 7.12502
rthumb 72.6703 -354.63
lclavicle 2.73329e-014 -1.19271e-015
lhumerus -38.2022 -29.0841 108.719
lradius 103.453
lwrist -51.0631
lhand -126.701 -475.625
lfingers 7.12502
lthumb 71.9451 -307.365
rfemur -14.972 27.4666 16.1564
rtibia 20.1662
rfoot -2.03242 -24.8588
rtoes -6.62595
lfemur -6.91562 -16.802 -13.6766
ltibia 28.9294
lfoot 24.2525 -5.79522
ltoes 31.8154
2637
root 8.5068 16.482 -21.3298 -371.388 -67.2308 21.1442
lowerback -2.45678 -0.534264 -2.73731
upperback -8.25049 -1.09255 -1.77571
thorax -7.22181 -0.526286 -0.275001
lowerneck -3.8924 10.6782 -2.96883
upperneck -3.44887 14.4419 7.71274
head -1.28611 7.1972 2.87968
rclavicle 1.18277e-014 9.14409e-015
rhumerus -28.5869 17.2689 -97.3252
rradius 102.798
rwrist 14.2325
rhand 54.4332 -10.1027
rfingers 7.12502
rthumb 72.5423 -355.349
lclavicle 1.18277e-014 9.14409e-015
lhumerus -38.1383 -28.9363 108.612
lradius 103.395
lwrist -50.9361
lhand -126.933 -475.428
lfingers 7.12502
lthumb 71.8172 -306.58
rfemur -14.9979 27.4775 16.2143
rtibia 20.197
rfoot -2.42562 -24.8315
rtoes -5.42073
lfemur -6.92245 -16.6404 -13.5938
ltibia 28.9316
lfoot 24.2325 -6.27676
ltoes 29.2688
2638
root 8.51045 16.4769 -21.335 -371.151 -67.1945 20.9735
lowerback -2.50771 -0.526181 -2.73797
upperback -8.24605 -1.07852 -1.76379
thorax -7.18743 -0.519132 -0.263288
lowerneck -3.9626 10.2269 -3.34122
upperneck -3.75681 13.8787 8.12973
head -1.40368 6.91204 3.08638
rclavicle -2.85256e-014 -4.17448e-014
rhumerus -28.5755 17.2173 -97.2925
rradius 102.761
rwrist 14.0039
rhand 54.1845 -10.2501
rfingers 7.12502
rthumb 72.4157 -356.175
lclavicle -2.85256e-014 -4.17448e-014
lhumerus -38.1264 -28.8146 108.617
lradius 103.346
lwrist -50.8684
lhand -126.824 -475.264
lfingers 7.12502
lthumb 71.8777 -306.692
rfemur -15.1369 27.7463 16.22
rtibia 20.2577
rfoot -2.27334 -25.1631
rtoes -6.01393
lfemur -7.02891 -16.5408 -13.4573
ltibia 28.8997
lfoot 24.373 -6.21101
ltoes 29.0011
2639
root 8.51516 16.4723 -21.3375 -371.004 -67.174 20.7969
lowerback -2.4792 -0.474055 -2.6897
upperback -8.17964 -1.00397 -1.78133
thorax -7.13345 -0.485151 -0.311137
lowerneck -4.25547 9.61065 -3.75514
upperneck -3.89973 13.0912 8.61014
head -1.41715 6.52402 3.34932
rclavicle 9.64106e-015 8.34896e-015
rhumerus -28.5196 17.071 -97.1725
rradius 102.808
rwrist 14.0667
rhand 54.0048 -10.7743
rfingers 7.12502
rthumb 72.3228 -357.183
lclavicle 9.64106e-015 8.34896e-015
lhumerus -38.0486 -28.7612 108.648
lradius 103.328
lwrist -50.9214
lhand -126.286 -475.471
lfingers 7.12502
lthumb 72.1695 -308.29
rfemur -15.1571 28.2275 16.2453
rtibia 20.2878
rfoot -1.90891 -25.6266
rtoes -6.79452
lfemur -7.01923 -16.6663 -13.3428
ltibia 28.8665
lfoot 24.56 -5.06402
ltoes 31.9416
2640
root 8.51675 16.474 -21.341 -371.312 -67.1283 21.0939
lowerback -2.44026 -0.56284 -2.83718
upperback -8.10955 -1.12013 -1.75004
thorax -7.07599 -0.531571 -0.191606
lowerneck -4.3075 8.92095 -4.39156
upperneck -4.3203 12.229 9.02237
head -1.56061 6.09196 3.61504
rclavicle -1.8487e-014 1.70955e-014
rhumerus -28.5 17.3883 -97.1708
rradius 102.927
rwrist 14.1358
rhand 54.0771 -11.5213
rfingers 7.12502
rthumb 72.3603 -357.736
lclavicle -1.8487e-014 1.70955e-014
lhumerus -37.7163 -28.2714 108.475
lradius 103.245
lwrist -51.1214
lhand -125.618 -476.087
lfingers 7.12502
lthumb 72.5163 -310.699
rfemur -15.1153 28.5164 16.0923
rtibia 20.2557
rfoot -2.04318 -25.9268
rtoes -5.85818
lfemur -6.95806 -16.8665 -13.4597
ltibia 28.8348
lfoot 24.6009 -4.28849
ltoes 34.7619
2641
root 8.51551 16.4781 -21.3449 -371.75 -67.0803 21.5533
lowerback -2.45978 -0.6249 -3.11964
upperback -8.05355 -1.20223 -1.72137
thorax -6.99878 -0.553509 -0.00165875
lowerneck -3.82082 8.03764 -4.97027
upperneck -5.37481 11.1255 9.22239
head -1.96167 5.51527 3.77509
rclavicle 3.26007e-014 2.62396e-014
rhumerus -28.4938 17.5908 -97.028
rradius 103.047
rwrist 14.0563
rhand 54.2007 -11.525
rfingers 7.12502
rthumb 72.4241 -357.406
lclavicle 3.26007e-014 2.62396e-014
lhumerus -37.4081 -27.8068 108.422
lradius 103.115
lwrist -51.4957
lhand -125.371 -476.125
lfingers 7.12502
lthumb 72.64 -311.418
rfemur -15.1025 28.6922 15.8884
rtibia 20.2735
rfoot -2.22961 -26.1625
rtoes -4.76448
lfemur -6.9286 -16.8458 -13.6933
ltibia 28.7475
lfoot 24.6085 -5.16261
ltoes 33.0918
2642
root 8.51449 16.4822 -21.3467 -371.796 -67.0707 21.5191
lowerback -2.44713 -0.514922 -3.1611
upperback -7.94371 -1.05103 -1.78799
thorax -6.89128 -0.478138 -0.0536337
lowerneck -3.17591 6.85314 -5.18976
upperneck -6.74599 9.60754 9.27976
head -2.42684 4.71711 3.83948
rclavicle 3.34952e-014 -2.0276e-014
rhumerus -28.3702 17.2325 -96.7111
rradius 103.128
rwrist 14.1244
rhand 54.1811 -11.2287
rfingers 7.12502
rthumb 72.414 -357.163
lclavicle 3.34952e-014 -2.0276e-014
lhumerus -37.3704 -27.7727 108.494
lradius 103.18
lwrist -51.815
lhand -125.609 -476.095
lfingers 7.12502
lthumb 72.5211 -310.734
rfemur -15.0248 28.7069 15.9553
rtibia 20.3618
rfoot -2.21258 -26.0879
rtoes -4.12772
lfemur -6.84627 -16.8687 -13.7147
ltibia 28.629
lfoot 24.6207 -5.74962
ltoes 31.6436
